<?xml version="1.0" encoding="utf-8"?>
<!-- Generator: Adobe Illustrator 21.0.2, SVG Export Plug-In . SVG Version: 6.00 Build 0)  -->
<svg version="1.1" id="Layer_1" xmlns="http://www.w3.org/2000/svg" xmlns:xlink="http://www.w3.org/1999/xlink" x="0px" y="0px"
	 width="1400px" height="980px" viewBox="0 0 1400 980" enable-background="new 0 0 1400 980" xml:space="preserve">
<g>
	<path fill="#041A3F" d="M191.7,142.9c0,0-8.1-42.4,39.9-48.8c48-6.4,59.5,32,70,29.7s25-12.2,39.9-3.1c20.7,12.6-3.3,68.6,20.6,92
		s85.5,27.7,61.8,66.5s-91.7,83.2-130.8,44.7s4-22.7-16.5-2.7c-20.5,20-43.3,5-80.4-10.1s-57.8-67.2-36.1-101.8
		S193.3,173.4,191.7,142.9z"/>
	<path fill="#FFC787" d="M235.2,301c0,0-64.7,21.5-73.3,74.8c0,0,39.3,26.7,91.3,13.3s70.7-14,94.7-12c0,0,18.7-28-8-53.3
		C313.2,298.5,251.9,288.9,235.2,301z"/>
	<path fill="#F9DBCA" d="M231.7,257l3.5,44c0,0,49.7,24.9,59,0c-2.7-27.4,0-57.5,0-57.5L231.7,257z"/>
	<path fill="#D6B9AB" d="M293.1,269.2c0,0-41.8,8.4-61.3-9.6l3.5,41.4c0,0-2-18.8,6.6-25.9c2.9-2.4,8.1,2,13.5,2.6
		C276.3,280.5,293.1,269.2,293.1,269.2z"/>
	<path fill="#F9DBCA" d="M210,195.1c0,0-8.3-5.9-10.3,0c-2,5.9,7.5,33.4,18.5,34.4S210,195.1,210,195.1z"/>
	<path fill="#F9DBCA" d="M210.3,174.5c-1.9,31.4,0.8,102.9,63,98.9c38.5-2.5,39.5-28.1,43.9-58.4c3.3-22.6,8-37.2-1.5-54.5
		C263.5,204.3,213.4,122.8,210.3,174.5z"/>
</g>
<g>
	<path fill="#041A3F" d="M635,214.6c0,0,26,40,6,56.3s7.6,68.3,7.6,68.3S683,352,715,346s39.3,14.7,48.7-21.3c9.3-36,10-70.7,4-92.7
		S645,184,635,214.6z"/>
	<path fill="#F9DBCA" d="M687.8,271.3L685,301h45.3c0,0-6-26.4-8-42.1S687.8,271.3,687.8,271.3z"/>
	<path fill="#D6B9AB" d="M687.2,277.6l36.4-6.6l6.2,28c0,0-3.9-14.7-11.9-14C710,285.6,693.8,285.2,687.2,277.6z"/>
	<path fill="#F9DBCA" d="M638.4,163.7c-1,18.8,1.9,44.7,12.6,70.3c5.3,12.8,9.4,28.1,22.3,37.2c38.8,27.3,85.2-11.9,85.6-95.6
		C759.3,91.8,641,115.9,638.4,163.7z"/>
	<path fill="#041A3F" d="M623,234.6c-15.8-0.7-55-16-40-60s50,3,65-50s53-59,88-20s9,65.6,47,87.8s-16,99-42,51.1
		c-9.2-16.8,5.4-36.2,4.5-50.4c-1.7-26.1-13.9-41.9-27.5-42.5C697,149.6,669.1,236.6,623,234.6z"/>
	<path fill="#FF97BB" d="M685.7,293.6c0,0,24.3,11,42.1,0c13.5,3.8,59,6.6,66,22.5c7.4,17-22,51.7-33.8,66
		c-11.1,13.5-24.3,14.1-58.3-4.1s-46.8-4-56.8-5.9c-17.9-3.3-31-48-21.5-61.2C632.7,297.7,685.7,293.6,685.7,293.6z"/>
</g>
<g>
	<path fill="#041A3F" d="M1057.5,178.2c0,0,11.5,52.4-28.7,120.4s54.2,42.6,108.2,55.9c54,13.3,121.9,42.9,110.5-19.1
		s-70.5-109.4-76.3-145.6S1069.1,156.6,1057.5,178.2z"/>
	<path fill="#F9DBCA" d="M1135.9,276.3l2.9,29.7h-45.3c0,0,6-26.4,8-42.1S1135.9,276.3,1135.9,276.3z"/>
	<path fill="#D6B9AB" d="M1137,288l-38.7-7.2l-6.2,28c0,0,3.9-14.7,11.9-14C1112,295.5,1130.4,295.7,1137,288z"/>
	<path fill="#F9DBCA" d="M1177.3,177.2c1,18.8-1.9,44.7-12.6,70.3c-5.3,12.8-9.4,28.1-22.3,37.2c-38.8,27.3-85.2-11.9-85.6-95.6
		S1174.7,129.5,1177.3,177.2z"/>
	<path fill="#83FFDF" d="M1138.1,298.6c0,0-25.9,11-43.7,0c-13.5,3.8-58.9,50.9-47.2,65.3c11.1,13.5,23.1,20.4,61.4,15.7
		c32.7-4,51.4,15,68.8,9c17.2-5.9,20.9-32.5,0-56.7C1166.9,319.6,1138.1,298.6,1138.1,298.6z"/>
	<path fill="#041A3F" d="M1084.6,235.5c0,0-53-63,23-73.3c0,0,56.2,79,69.9,76.3c13.7-2.7,33.2-62,10.5-89.3s-50.5-62.7-86.1-48.7
		c-35.6,14-91.8,64.2-81.8,101.5S1085.4,232.9,1084.6,235.5z"/>
</g>
<g>
	<path fill="#FF8D77" d="M308.8,762.2c0,0,102.1,49.3,72.5,94.4c-14.4,21.9-74.3,31.8-126.3,18.5c-52-13.3-78.7-3.5-89.3-32.5
		c-6.4-17.4,11.8-32.3,38.5-57.6S292.1,750.1,308.8,762.2z"/>
	<path fill="#F9DBCA" d="M312.3,718.2l-3.5,44c0,0-49.7,24.9-59,0c2.7-27.4,0-57.5,0-57.5L312.3,718.2z"/>
	<path fill="#D6B9AB" d="M250.9,730.4c0,0,41.8,8.4,61.3-9.6l-3.5,41.4c0,0,2.1-13.6-6.5-20.7c-2.9-2.4-8.2-3.2-13.6-2.5
		C267.7,741.7,250.9,730.4,250.9,730.4z"/>
	<path fill="#F9DBCA" d="M213,586.7c-5.1,20.7-8.1,39.1-2.7,80.8c2.7,21.1,14.1,46.7,19,53.2c14.7,19.5,80.4,19.5,99.7,0
		c19.3-19.5,36.3-131,30.8-146S221.4,552,213,586.7z"/>
	<path fill="#041A3F" d="M207,606.1c-17.1-11.2-49.6-39.9-45.1-70.1c0,0,39.1,19.3,58.1,0.7c29.5-29,74.1-30,101.4-25.3
		s51.3,41.1,48.6,75.4c-2.7,34.3-18.3,77.5-18.3,77.5S339,662.6,339,652s-2-54.7-18.7-67.3C320.3,584.6,260.4,641.1,207,606.1z"/>
	<path fill="#F9DBCA" d="M332.5,632.1c0,0,9-14.5,16.5-7.5s4,47.5-11.5,54S332.5,632.1,332.5,632.1z"/>
</g>
<g>
	<path fill="#F9DBCA" d="M653.6,625.2c0,0-15.5-10.6-22.7,0c-7.3,10.6,7.4,47.9,22.7,44.6C669,666.4,653.6,625.2,653.6,625.2z"/>
	<path fill="#F9DBCA" d="M786.4,625.2c0,0,15.5-10.6,22.7,0c7.3,10.6-7.4,47.9-22.7,44.6C771.1,666.4,786.4,625.2,786.4,625.2z"/>
	<path fill="#414042" d="M691.2,764.7c0,0-107.5,13.9-77.9,59.1c14.4,21.9,53.6,38,105.6,24.7c52-13.3,104.7,25.7,115.4-3.3
		c6.4-17.4,14.7-40.7-12-66C795.6,753.8,707.8,752.5,691.2,764.7z"/>
	<path fill="#F9DBCA" d="M687.7,720.7l3.5,44c0,0,49.7,24.9,59,0c-2.7-27.4,0-57.5,0-57.5L687.7,720.7z"/>
	<path fill="#D6B9AB" d="M749,732.8c0,0-41.8,8.4-61.3-9.6l3.5,41.4c0,0-2.1-13.6,6.5-20.7c2.9-2.4,8.2-3.2,13.6-2.5
		C732.2,744.2,749,732.8,749,732.8z"/>
	<path fill="#F9DBCA" d="M667.6,710.4c-22.9-28.8-29.7-92.3-13.7-141.3s94-46,129-10.5s3.8,155.2-25.2,170.2
		S682.7,729.3,667.6,710.4z"/>
	<path fill="#041A3F" d="M792.4,660.3c0,0,33.2-76.2,23.9-101.7c-9.3-25.5-34-26.5-37.3-13.5c-19.3-22-73.3-52.7-122.7-24.7
		c-49.3,28-11.6,127.9-11.6,127.9s3.6-65.2,44.3-82.6s80.7,12,80.7,12S801.7,552.7,792.4,660.3z"/>
</g>
<g>
	<path fill="#F9DBCA" d="M1054.1,622.7c0,0-15.5-10.6-22.7,0s7.4,47.9,22.7,44.6C1069.4,664,1054.1,622.7,1054.1,622.7z"/>
	<path fill="#F9DBCA" d="M1186.9,622.7c0,0,15.5-10.6,22.7,0s-7.4,47.9-22.7,44.6C1171.5,664,1186.9,622.7,1186.9,622.7z"/>
	<path fill="#8F9AFF" d="M1091.6,762.2c0,0-87,39.9-57.3,85.1c14.4,21.9,36.8,64,88.8,50.7s77.7-23,88.4-52
		c6.4-17.4,4.8-54-21.9-79.3C1163,741.3,1108.3,750.1,1091.6,762.2z"/>
	<path fill="#F9DBCA" d="M1088.1,718.2l3.5,44c0,0,49.7,24.9,59,0c-2.7-27.4,0-57.5,0-57.5L1088.1,718.2z"/>
	<path fill="#D6B9AB" d="M1149.5,730.4c0,0-41.8,8.4-61.3-9.6l3.5,41.4c0,0-2.1-13.6,6.5-20.7c2.9-2.4,8.2-3.2,13.6-2.5
		C1132.7,741.7,1149.5,730.4,1149.5,730.4z"/>
	<path fill="#F9DBCA" d="M1074.1,714c-22.9-28.8-35.6-98.3-19.6-147.3s94-46,129-10.5s3.8,155.2-25.2,170.2S1089.1,732.9,1074.1,714
		z"/>
	<path fill="#041A3F" d="M1043.4,607.5c30,8.5,142,18.7,176,0c34-18.7-66-48.7-125.3-44C1034.7,568.2,976.4,588.7,1043.4,607.5z"/>
	<path fill="#041A3F" d="M1053.4,584.9c0,0,6.7-68,34-88c27.3-20,34,23.3,56,11.3s28.9-19.3,39.1,8.7c10.2,28,9.6,76.7,7.6,79
		C1188.1,598.2,1074.1,610.9,1053.4,584.9z"/>
</g>
</svg>
